<mxfile host="Electron" agent="Mozilla/5.0 (Windows NT 10.0; Win64; x64) AppleWebKit/537.36 (KHTML, like Gecko) draw.io/28.1.2 Chrome/138.0.7204.243 Electron/37.4.0 Safari/537.36" version="28.1.2">
  <diagram name="Page-1" id="tlI4llSTPYXB_m_DNoNd">
    <mxGraphModel dx="1188" dy="701" grid="1" gridSize="10" guides="1" tooltips="1" connect="1" arrows="1" fold="1" page="1" pageScale="1" pageWidth="850" pageHeight="1100" math="0" shadow="0">
      <root>
        <mxCell id="0" />
        <mxCell id="1" parent="0" />
        <mxCell id="6cXPobCGo336jcrVxcem-1" value="&lt;div&gt;&lt;br&gt;&lt;/div&gt;&lt;div&gt;&lt;br&gt;&lt;/div&gt;" style="text;html=1;align=center;verticalAlign=middle;whiteSpace=wrap;rounded=0;strokeColor=default;dashed=1;" vertex="1" parent="1">
          <mxGeometry x="30" y="200" width="140" height="460" as="geometry" />
        </mxCell>
        <mxCell id="6cXPobCGo336jcrVxcem-2" value="Source&amp;nbsp;" style="rounded=0;whiteSpace=wrap;html=1;gradientColor=none;fillColor=default;strokeColor=none;fontStyle=1" vertex="1" parent="1">
          <mxGeometry x="55" y="185" width="90" height="30" as="geometry" />
        </mxCell>
        <mxCell id="6cXPobCGo336jcrVxcem-4" value="&lt;div&gt;&lt;br&gt;&lt;/div&gt;&lt;div&gt;&lt;br&gt;&lt;/div&gt;" style="text;html=1;align=center;verticalAlign=middle;whiteSpace=wrap;rounded=0;strokeColor=default;dashed=1;" vertex="1" parent="1">
          <mxGeometry x="215" y="200" width="665" height="460" as="geometry" />
        </mxCell>
        <mxCell id="6cXPobCGo336jcrVxcem-5" value="Data Warehouse&amp;nbsp;" style="rounded=0;whiteSpace=wrap;html=1;strokeColor=none;fontStyle=1" vertex="1" parent="1">
          <mxGeometry x="410" y="190" width="120" height="20" as="geometry" />
        </mxCell>
        <mxCell id="6cXPobCGo336jcrVxcem-11" value="&lt;div&gt;&lt;br&gt;&lt;/div&gt;&lt;div&gt;&lt;br&gt;&lt;/div&gt;" style="text;html=1;align=center;verticalAlign=middle;whiteSpace=wrap;rounded=0;strokeColor=#d79b00;fillColor=none;strokeWidth=2;" vertex="1" parent="1">
          <mxGeometry x="245" y="270" width="155" height="370" as="geometry" />
        </mxCell>
        <mxCell id="6cXPobCGo336jcrVxcem-12" value="Bronze Layer&amp;nbsp;" style="rounded=0;whiteSpace=wrap;html=1;fillColor=#ffe6cc;strokeColor=#d79b00;" vertex="1" parent="1">
          <mxGeometry x="252.5" y="230" width="140" height="30" as="geometry" />
        </mxCell>
        <mxCell id="6cXPobCGo336jcrVxcem-15" value="Silver Layer&amp;nbsp;" style="rounded=0;whiteSpace=wrap;html=1;fillColor=#f5f5f5;strokeColor=#666666;fontColor=#333333;" vertex="1" parent="1">
          <mxGeometry x="477.5" y="230" width="140" height="30" as="geometry" />
        </mxCell>
        <mxCell id="6cXPobCGo336jcrVxcem-16" value="Gold Layer&amp;nbsp;" style="rounded=0;whiteSpace=wrap;html=1;fillColor=#fff2cc;strokeColor=#d6b656;" vertex="1" parent="1">
          <mxGeometry x="695" y="230" width="135" height="30" as="geometry" />
        </mxCell>
        <mxCell id="6cXPobCGo336jcrVxcem-20" value="" style="image;aspect=fixed;html=1;points=[];align=center;fontSize=12;image=img/lib/azure2/general/Folder_Blank.svg;" vertex="1" parent="1">
          <mxGeometry x="81.44" y="260" width="37.11" height="30.12" as="geometry" />
        </mxCell>
        <mxCell id="6cXPobCGo336jcrVxcem-22" value="" style="image;aspect=fixed;html=1;points=[];align=center;fontSize=12;image=img/lib/azure2/general/Folder_Blank.svg;" vertex="1" parent="1">
          <mxGeometry x="81.44000000000001" y="400" width="37.11" height="30.12" as="geometry" />
        </mxCell>
        <mxCell id="6cXPobCGo336jcrVxcem-23" value="CRM" style="text;html=1;align=center;verticalAlign=middle;whiteSpace=wrap;rounded=0;" vertex="1" parent="1">
          <mxGeometry x="70" y="300" width="60" height="30" as="geometry" />
        </mxCell>
        <mxCell id="6cXPobCGo336jcrVxcem-24" value="ERP&lt;div&gt;&lt;br&gt;&lt;/div&gt;" style="text;html=1;align=center;verticalAlign=middle;whiteSpace=wrap;rounded=0;" vertex="1" parent="1">
          <mxGeometry x="70" y="440" width="60" height="30" as="geometry" />
        </mxCell>
        <mxCell id="6cXPobCGo336jcrVxcem-31" value="" style="shape=singleArrow;whiteSpace=wrap;html=1;" vertex="1" parent="1">
          <mxGeometry x="145" y="610" width="70" height="25" as="geometry" />
        </mxCell>
        <mxCell id="6cXPobCGo336jcrVxcem-32" value="" style="html=1;verticalLabelPosition=bottom;align=center;labelBackgroundColor=#ffffff;verticalAlign=top;strokeWidth=2;strokeColor=#d79b00;shadow=0;dashed=0;shape=mxgraph.ios7.icons.data;fillColor=#ffe6cc;" vertex="1" parent="1">
          <mxGeometry x="310.5" y="300" width="24" height="29.099999999999998" as="geometry" />
        </mxCell>
        <mxCell id="6cXPobCGo336jcrVxcem-35" value="" style="html=1;verticalLabelPosition=bottom;align=center;labelBackgroundColor=#ffffff;verticalAlign=top;strokeWidth=2;strokeColor=#d6b656;shadow=0;dashed=0;shape=mxgraph.ios7.icons.data;fillColor=#fff2cc;" vertex="1" parent="1">
          <mxGeometry x="750.5" y="300" width="24" height="29.099999999999998" as="geometry" />
        </mxCell>
        <mxCell id="6cXPobCGo336jcrVxcem-36" value="" style="html=1;verticalLabelPosition=bottom;align=center;labelBackgroundColor=#ffffff;verticalAlign=top;strokeWidth=2;strokeColor=#666666;shadow=0;dashed=0;shape=mxgraph.ios7.icons.data;fillColor=#f5f5f5;fontColor=#333333;" vertex="1" parent="1">
          <mxGeometry x="535.5" y="300" width="24" height="29.099999999999998" as="geometry" />
        </mxCell>
        <mxCell id="6cXPobCGo336jcrVxcem-37" value="&lt;font style=&quot;font-size: 9px;&quot;&gt;Raw Data&lt;/font&gt;" style="text;html=1;align=center;verticalAlign=middle;whiteSpace=wrap;rounded=0;" vertex="1" parent="1">
          <mxGeometry x="292.5" y="335" width="60" height="30" as="geometry" />
        </mxCell>
        <mxCell id="6cXPobCGo336jcrVxcem-38" value="&lt;font style=&quot;font-size: 10px;&quot;&gt;Cleaned &amp;amp; Standardized Data&amp;nbsp;&lt;/font&gt;" style="text;html=1;align=center;verticalAlign=middle;whiteSpace=wrap;rounded=0;" vertex="1" parent="1">
          <mxGeometry x="508.5" y="335.90000000000003" width="78" height="40" as="geometry" />
        </mxCell>
        <mxCell id="6cXPobCGo336jcrVxcem-39" value="&lt;font style=&quot;font-size: 10px;&quot;&gt;Business-Ready Data&amp;nbsp;&lt;/font&gt;" style="text;html=1;align=center;verticalAlign=middle;whiteSpace=wrap;rounded=0;" vertex="1" parent="1">
          <mxGeometry x="722.5" y="335.9" width="80" height="30.45" as="geometry" />
        </mxCell>
        <mxCell id="6cXPobCGo336jcrVxcem-40" style="edgeStyle=orthogonalEdgeStyle;rounded=0;orthogonalLoop=1;jettySize=auto;html=1;exitX=0.5;exitY=1;exitDx=0;exitDy=0;" edge="1" parent="1" source="6cXPobCGo336jcrVxcem-38" target="6cXPobCGo336jcrVxcem-38">
          <mxGeometry relative="1" as="geometry" />
        </mxCell>
        <mxCell id="6cXPobCGo336jcrVxcem-42" value="" style="verticalLabelPosition=bottom;shadow=0;dashed=0;align=center;html=1;verticalAlign=top;strokeWidth=1;shape=mxgraph.mockup.markup.line;strokeColor=#d79b00;fillColor=#ffe6cc;" vertex="1" parent="1">
          <mxGeometry x="279.5" y="365.9" width="87.5" height="20" as="geometry" />
        </mxCell>
        <mxCell id="6cXPobCGo336jcrVxcem-46" value="" style="verticalLabelPosition=bottom;shadow=0;dashed=0;align=center;html=1;verticalAlign=top;strokeWidth=1;shape=mxgraph.mockup.markup.line;strokeColor=#666666;fillColor=#f5f5f5;fontColor=#333333;" vertex="1" parent="1">
          <mxGeometry x="500" y="380" width="95" height="20" as="geometry" />
        </mxCell>
        <mxCell id="6cXPobCGo336jcrVxcem-47" value="" style="verticalLabelPosition=bottom;shadow=0;dashed=0;align=center;html=1;verticalAlign=top;strokeWidth=1;shape=mxgraph.mockup.markup.line;strokeColor=#d6b656;fillColor=#fff2cc;" vertex="1" parent="1">
          <mxGeometry x="722.5" y="380" width="95" height="20" as="geometry" />
        </mxCell>
        <mxCell id="6cXPobCGo336jcrVxcem-48" value="&lt;div style=&quot;line-height: 90%;&quot;&gt;&lt;font style=&quot;font-size: 9px; line-height: 90%;&quot;&gt;&lt;b&gt;Object type&lt;/b&gt;: Tables&lt;/font&gt;&lt;div style=&quot;text-align: left;&quot;&gt;&lt;font style=&quot;font-size: 9px;&quot;&gt;&lt;br&gt;&lt;/font&gt;&lt;/div&gt;&lt;div style=&quot;text-align: left;&quot;&gt;&lt;font style=&quot;font-size: 9px; line-height: 90%;&quot;&gt;&lt;b&gt;Load&lt;/b&gt;:&lt;/font&gt;&lt;/div&gt;&lt;div style=&quot;text-align: left;&quot;&gt;&lt;ul&gt;&lt;li&gt;&lt;font style=&quot;font-size: 9px; line-height: 90%;&quot;&gt;Batch Processing&amp;nbsp;&lt;/font&gt;&lt;/li&gt;&lt;li&gt;&lt;font style=&quot;font-size: 9px; line-height: 90%;&quot;&gt;Full Load&lt;/font&gt;&lt;/li&gt;&lt;li&gt;&lt;font style=&quot;font-size: 9px; line-height: 90%;&quot;&gt;Truncate &amp;amp; Insert&lt;/font&gt;&lt;/li&gt;&lt;/ul&gt;&lt;span style=&quot;background-color: transparent; color: light-dark(rgb(0, 0, 0), rgb(255, 255, 255));&quot;&gt;&lt;font style=&quot;font-size: 9px; line-height: 90%;&quot;&gt;&lt;b&gt;No Transformation&lt;/b&gt;&lt;/font&gt;&lt;/span&gt;&lt;/div&gt;&lt;div style=&quot;text-align: left;&quot;&gt;&lt;span style=&quot;background-color: transparent; color: light-dark(rgb(0, 0, 0), rgb(255, 255, 255));&quot;&gt;&lt;font style=&quot;font-size: 9px; line-height: 90%;&quot;&gt;&lt;b&gt;Data Model:&lt;/b&gt; None&amp;nbsp; &amp;nbsp;&lt;/font&gt;&lt;/span&gt;&lt;/div&gt;&lt;/div&gt;" style="text;html=1;align=center;verticalAlign=middle;whiteSpace=wrap;rounded=0;spacing=2;spacingTop=0;" vertex="1" parent="1">
          <mxGeometry x="264.5" y="385.9" width="117.5" height="204.1" as="geometry" />
        </mxCell>
        <mxCell id="6cXPobCGo336jcrVxcem-54" value="&lt;div&gt;&lt;br&gt;&lt;/div&gt;&lt;div&gt;&lt;br&gt;&lt;/div&gt;" style="text;html=1;align=center;verticalAlign=middle;whiteSpace=wrap;rounded=0;strokeColor=#CCCCCC;fillColor=none;strokeWidth=2;fontColor=#333333;" vertex="1" parent="1">
          <mxGeometry x="470" y="270" width="155" height="370" as="geometry" />
        </mxCell>
        <mxCell id="6cXPobCGo336jcrVxcem-55" value="&lt;div&gt;&lt;br&gt;&lt;/div&gt;&lt;div&gt;&lt;br&gt;&lt;/div&gt;" style="text;html=1;align=center;verticalAlign=middle;whiteSpace=wrap;rounded=0;strokeColor=#FFD966;fillColor=none;strokeWidth=2;" vertex="1" parent="1">
          <mxGeometry x="685" y="270" width="155" height="370" as="geometry" />
        </mxCell>
        <mxCell id="6cXPobCGo336jcrVxcem-58" value="&lt;div style=&quot;line-height: 90%;&quot;&gt;&lt;font style=&quot;line-height: 90%; font-size: 9px;&quot;&gt;&lt;b&gt;Object type&lt;/b&gt;: Tables&lt;/font&gt;&lt;div style=&quot;text-align: left;&quot;&gt;&lt;font style=&quot;font-size: 9px;&quot;&gt;&lt;br&gt;&lt;/font&gt;&lt;/div&gt;&lt;div style=&quot;text-align: left;&quot;&gt;&lt;font style=&quot;line-height: 90%; font-size: 9px;&quot;&gt;&lt;b&gt;Load&lt;/b&gt;:&lt;/font&gt;&lt;/div&gt;&lt;div style=&quot;text-align: left;&quot;&gt;&lt;ul&gt;&lt;li&gt;&lt;font style=&quot;line-height: 90%; font-size: 9px;&quot;&gt;Batch Processing&amp;nbsp;&lt;/font&gt;&lt;/li&gt;&lt;li&gt;&lt;font style=&quot;line-height: 90%; font-size: 9px;&quot;&gt;Full Load&lt;/font&gt;&lt;/li&gt;&lt;li&gt;&lt;font style=&quot;line-height: 90%; font-size: 9px;&quot;&gt;Truncate &amp;amp; Insert&lt;/font&gt;&lt;/li&gt;&lt;/ul&gt;&lt;span style=&quot;background-color: transparent; color: light-dark(rgb(0, 0, 0), rgb(255, 255, 255));&quot;&gt;&lt;font style=&quot;line-height: 90%; font-size: 9px;&quot;&gt;&lt;b&gt;Transformation:&lt;/b&gt;&lt;/font&gt;&lt;/span&gt;&lt;/div&gt;&lt;div style=&quot;text-align: left;&quot;&gt;&lt;ul&gt;&lt;li&gt;&lt;span style=&quot;background-color: transparent; color: light-dark(rgb(0, 0, 0), rgb(255, 255, 255));&quot;&gt;&lt;font style=&quot;line-height: 90%; font-size: 9px;&quot;&gt;Data Cleansing&amp;nbsp;&lt;/font&gt;&lt;/span&gt;&lt;/li&gt;&lt;li&gt;&lt;span style=&quot;background-color: transparent; color: light-dark(rgb(0, 0, 0), rgb(255, 255, 255));&quot;&gt;&lt;font style=&quot;line-height: 90%; font-size: 9px;&quot;&gt;Data Standardization&lt;/font&gt;&lt;/span&gt;&lt;/li&gt;&lt;li&gt;&lt;span style=&quot;background-color: transparent; color: light-dark(rgb(0, 0, 0), rgb(255, 255, 255));&quot;&gt;&lt;font style=&quot;line-height: 90%; font-size: 9px;&quot;&gt;Data Mornalization&amp;nbsp;&lt;/font&gt;&lt;/span&gt;&lt;/li&gt;&lt;li&gt;&lt;span style=&quot;background-color: transparent; color: light-dark(rgb(0, 0, 0), rgb(255, 255, 255));&quot;&gt;&lt;font style=&quot;line-height: 90%; font-size: 9px;&quot;&gt;Derived Column&amp;nbsp;&lt;/font&gt;&lt;/span&gt;&lt;/li&gt;&lt;li&gt;&lt;span style=&quot;background-color: transparent; color: light-dark(rgb(0, 0, 0), rgb(255, 255, 255));&quot;&gt;&lt;font style=&quot;line-height: 90%; font-size: 9px;&quot;&gt;Data Enrichment&amp;nbsp;&lt;/font&gt;&lt;/span&gt;&lt;/li&gt;&lt;/ul&gt;&lt;font style=&quot;line-height: 90%; font-size: 9px;&quot;&gt;&lt;b&gt;Data Model: None&amp;nbsp;&lt;/b&gt;&lt;/font&gt;&lt;/div&gt;&lt;/div&gt;" style="text;html=1;align=center;verticalAlign=middle;whiteSpace=wrap;rounded=0;spacing=2;spacingTop=0;" vertex="1" parent="1">
          <mxGeometry x="488.75" y="405.9" width="117.5" height="204.1" as="geometry" />
        </mxCell>
        <mxCell id="6cXPobCGo336jcrVxcem-59" value="&lt;div style=&quot;line-height: 90%;&quot;&gt;&lt;font style=&quot;line-height: 90%; font-size: 9px;&quot;&gt;&lt;b&gt;Object type&lt;/b&gt;: Views&lt;/font&gt;&lt;div style=&quot;text-align: left;&quot;&gt;&lt;font style=&quot;font-size: 9px;&quot;&gt;&lt;br&gt;&lt;/font&gt;&lt;/div&gt;&lt;div style=&quot;text-align: left;&quot;&gt;&lt;font style=&quot;line-height: 90%; font-size: 9px;&quot;&gt;&lt;b&gt;No Load&lt;/b&gt;&lt;/font&gt;&lt;/div&gt;&lt;div style=&quot;text-align: left;&quot;&gt;&lt;font style=&quot;line-height: 90%; font-size: 9px;&quot;&gt;&lt;b&gt;&lt;br&gt;&lt;/b&gt;&lt;/font&gt;&lt;/div&gt;&lt;div style=&quot;text-align: left;&quot;&gt;&lt;span style=&quot;background-color: transparent; color: light-dark(rgb(0, 0, 0), rgb(255, 255, 255));&quot;&gt;&lt;font style=&quot;line-height: 90%; font-size: 9px;&quot;&gt;&lt;b&gt;No Transformation:&lt;/b&gt;&lt;/font&gt;&lt;/span&gt;&lt;/div&gt;&lt;div style=&quot;text-align: left;&quot;&gt;&lt;ul&gt;&lt;li&gt;&lt;span style=&quot;background-color: transparent; color: light-dark(rgb(0, 0, 0), rgb(255, 255, 255));&quot;&gt;&lt;font style=&quot;line-height: 90%; font-size: 9px;&quot;&gt;Data Intergrations&lt;br&gt;&lt;/font&gt;&lt;/span&gt;&lt;/li&gt;&lt;li&gt;&lt;span style=&quot;background-color: transparent; color: light-dark(rgb(0, 0, 0), rgb(255, 255, 255));&quot;&gt;&lt;font style=&quot;line-height: 90%; font-size: 9px;&quot;&gt;Aggregations&lt;/font&gt;&lt;/span&gt;&lt;/li&gt;&lt;li&gt;&lt;span style=&quot;background-color: transparent; color: light-dark(rgb(0, 0, 0), rgb(255, 255, 255));&quot;&gt;&lt;font style=&quot;line-height: 90%; font-size: 9px;&quot;&gt;Business Logics&amp;nbsp;&lt;/font&gt;&lt;/span&gt;&lt;/li&gt;&lt;/ul&gt;&lt;font style=&quot;line-height: 90%; font-size: 9px;&quot;&gt;&lt;b&gt;Data Model:&amp;nbsp;&lt;/b&gt;&lt;/font&gt;&lt;/div&gt;&lt;div style=&quot;text-align: left;&quot;&gt;&lt;ul&gt;&lt;li&gt;&lt;font style=&quot;line-height: 90%; font-size: 9px;&quot;&gt;Star Schema&amp;nbsp;&lt;/font&gt;&lt;/li&gt;&lt;li&gt;&lt;font style=&quot;line-height: 90%; font-size: 9px;&quot;&gt;Flat Table&amp;nbsp;&lt;/font&gt;&lt;/li&gt;&lt;li&gt;&lt;font style=&quot;line-height: 90%; font-size: 9px;&quot;&gt;Aggregate Table&amp;nbsp;&lt;/font&gt;&lt;/li&gt;&lt;/ul&gt;&lt;/div&gt;&lt;/div&gt;" style="text;html=1;align=center;verticalAlign=middle;whiteSpace=wrap;rounded=0;spacing=2;spacingTop=0;" vertex="1" parent="1">
          <mxGeometry x="702.5" y="405.9" width="120" height="220" as="geometry" />
        </mxCell>
        <mxCell id="6cXPobCGo336jcrVxcem-60" value="&lt;div&gt;&lt;br&gt;&lt;/div&gt;&lt;div&gt;&lt;br&gt;&lt;/div&gt;" style="text;html=1;align=center;verticalAlign=middle;whiteSpace=wrap;rounded=0;strokeColor=default;dashed=1;" vertex="1" parent="1">
          <mxGeometry x="930" y="200" width="140" height="460" as="geometry" />
        </mxCell>
        <mxCell id="6cXPobCGo336jcrVxcem-61" value="Consume&amp;nbsp;" style="text;html=1;align=center;verticalAlign=middle;whiteSpace=wrap;rounded=0;fillColor=default;fontStyle=1" vertex="1" parent="1">
          <mxGeometry x="960" y="185" width="80" height="30" as="geometry" />
        </mxCell>
        <mxCell id="6cXPobCGo336jcrVxcem-62" value="" style="outlineConnect=0;dashed=0;verticalLabelPosition=bottom;verticalAlign=top;align=center;html=1;shape=mxgraph.aws3.machine_learning;fillColor=#2E73B8;gradientColor=none;" vertex="1" parent="1">
          <mxGeometry x="963.5" y="408.5" width="76.5" height="93" as="geometry" />
        </mxCell>
        <mxCell id="6cXPobCGo336jcrVxcem-63" value="" style="image;aspect=fixed;html=1;points=[];align=center;fontSize=12;image=img/lib/azure2/analytics/Power_BI_Embedded.svg;" vertex="1" parent="1">
          <mxGeometry x="974.5" y="241.06" width="51" height="68" as="geometry" />
        </mxCell>
        <mxCell id="6cXPobCGo336jcrVxcem-64" value="BI &amp;amp; Reporting&amp;nbsp;" style="text;html=1;align=center;verticalAlign=middle;whiteSpace=wrap;rounded=0;" vertex="1" parent="1">
          <mxGeometry x="971.75" y="320" width="60" height="30" as="geometry" />
        </mxCell>
        <mxCell id="6cXPobCGo336jcrVxcem-65" value="Machine Learning&amp;nbsp;" style="text;html=1;align=center;verticalAlign=middle;whiteSpace=wrap;rounded=0;" vertex="1" parent="1">
          <mxGeometry x="974.5" y="510" width="60" height="30" as="geometry" />
        </mxCell>
      </root>
    </mxGraphModel>
  </diagram>
</mxfile>
